<?xml version="1.0" encoding="UTF-8"?>
<svg data-bbox="-564.3 347.6 50.6 80.8" viewBox="-589 338 100 125" xmlns="http://www.w3.org/2000/svg" data-type="shape">
    <g>
        <path d="M-528.2 418.2v-43.9h3.3v-2h-27v2h3.3v43.9c0 5.6 4.6 10.2 10.2 10.2s10.2-4.6 10.2-10.2zm-18.4 0v-5.4h7.4v-2h-7.4v-11h7.4v-2h-7.4v-11h7.4v-2h-7.4v-10.5h16.3v43.9c0 4.5-3.7 8.2-8.2 8.2s-8.1-3.7-8.1-8.2z"/>
        <path d="M-544.3 369.2c4.1 0 7.4-3.3 7.4-7.4 0-4.1-3.3-7.4-7.4-7.4-4.1 0-7.4 3.3-7.4 7.4 0 4.1 3.4 7.4 7.4 7.4zm0-12.7c3 0 5.4 2.4 5.4 5.4s-2.4 5.4-5.4 5.4-5.4-2.4-5.4-5.4 2.5-5.4 5.4-5.4z"/>
        <path d="M-527.5 365.5c3.8 0 6.9-3.1 6.9-6.9 0-3.8-3.1-6.9-6.9-6.9s-6.9 3.1-6.9 6.9c0 3.8 3.1 6.9 6.9 6.9zm0-11.8c2.7 0 4.9 2.2 4.9 4.9s-2.2 4.9-4.9 4.9-4.9-2.2-4.9-4.9 2.2-4.9 4.9-4.9z"/>
        <path d="M-560.9 367.1c0 1.8 1.5 3.3 3.3 3.3 1.8 0 3.3-1.5 3.3-3.3 0-1.8-1.5-3.3-3.3-3.3-1.8-.1-3.3 1.4-3.3 3.3zm4.7 0c0 .7-.6 1.3-1.3 1.3s-1.3-.6-1.3-1.3c0-.7.6-1.3 1.3-1.3.7-.1 1.3.5 1.3 1.3z"/>
        <path d="M-519.4 386c3.1 0 5.7-2.5 5.7-5.7s-2.5-5.7-5.7-5.7c-3.1 0-5.7 2.5-5.7 5.7s2.6 5.7 5.7 5.7zm0-9.3c2 0 3.7 1.6 3.7 3.7s-1.7 3.6-3.7 3.6-3.7-1.6-3.7-3.7 1.7-3.6 3.7-3.6z"/>
        <path d="M-533.6 350.7c0-1.7-1.4-3.1-3.1-3.1s-3.1 1.4-3.1 3.1c0 1.7 1.4 3.1 3.1 3.1s3.1-1.3 3.1-3.1zm-4.3 0c0-.6.5-1.1 1.1-1.1.6 0 1.1.5 1.1 1.1 0 .6-.5 1.1-1.1 1.1-.6 0-1.1-.4-1.1-1.1z"/>
        <path d="M-559.5 384c2.6 0 4.7-2.1 4.7-4.8 0-2.7-2.1-4.8-4.7-4.8s-4.8 2.1-4.8 4.8c0 2.7 2.2 4.8 4.8 4.8zm0-7.5c1.5 0 2.7 1.2 2.7 2.8 0 1.6-1.2 2.7-2.7 2.7s-2.8-1.2-2.8-2.8c0-1.6 1.3-2.7 2.8-2.7z"/>
    </g>
</svg>
