<?xml version="1.0" encoding="UTF-8"?>
<svg data-bbox="-626.95 388.973 23.95 17.953" viewBox="-627 386 24 30" xmlns="http://www.w3.org/2000/svg" data-type="shape">
    <g>
        <path d="M-612.4 389c-.3-.1-.5.1-.6.3l-5 17c-.1.3.1.6.4.6.3.1.6-.1.6-.4l5-17c.1-.1-.1-.4-.4-.5.1 0 0 0 0 0z"/>
        <path d="M-620.1 392.2c-.2-.2-.5-.2-.7 0l-6 5.5c-.2.2-.2.5 0 .7l6 5.5c.2.2.5.2.7 0 .2-.2.2-.5 0-.7l-5.6-5.2 5.6-5.1c.1-.2.2-.5 0-.7z"/>
        <path d="M-603.2 397.6l-6-5.5c-.2-.2-.5-.2-.7 0-.2.2-.2.5 0 .7l5.6 5.1-5.6 5.1c-.4.4.1 1.3.8.7l6-5.5c.1-.1.1-.2.1-.3 0 0-.1-.2-.2-.3z"/>
    </g>
</svg>
