<?xml version="1.0" encoding="UTF-8"?>
<svg data-bbox="-182 52.202 686.079 495.598" viewBox="-239 -100 800 1000" xmlns="http://www.w3.org/2000/svg" data-type="shape">
    <g>
        <path d="M-182 533.8c0 7.7 6.3 14 14 14h658.1c6.1 0 11.5-3.9 13.3-9.7 1.9-5.8-.3-12.1-5.2-15.7L190.6 303.8l63.4-88.6c4.5-6.3 3-15-3.2-19.5L78.2 72.2c-6.3-4.5-15-3.1-19.5 3.2l-63.9 89.3-154.7-109.9c-6.3-4.5-15-3-19.5 3.3s-3 15 3.3 19.5l283.9 201.7v86.3l-6.6-6.6c-5.5-5.5-14.3-5.5-19.8 0s-5.5 14.3 0 19.8l30.5 30.5c.2.2.5.3.7.5.2.2.5.4.8.6 1 .7 2 1.4 3 1.8 0 0 .1 0 .1.1.7.3 1.5.5 2.2.7.1 0 .3.1.4.1.8.2 1.7.2 2.5.2h.2c.9 0 1.8-.1 2.7-.3.1 0 .3-.1.4-.1.7-.2 1.5-.4 2.2-.7.2-.1.3-.2.5-.2.7-.3 1.3-.6 2-1 .8-.5 1.5-1.1 2.2-1.8l31.3-31.3c5.5-5.5 5.5-14.3 0-19.8s-14.3-5.5-19.8 0l-7.4 7.4V299l155.6 110.6c-19.8 9.5-35.4 26.7-40.9 47.1-6 22.5-.9 45.4 11.9 62.9H-168c-7.8.2-14 6.4-14 14.2zm317.7-268.9v-43.3c10.2-5.2 17.3-15.6 17.3-27.9 0-17.3-14-31.3-31.3-31.3s-31.3 14-31.3 31.3c0 12.2 7.1 22.7 17.3 27.9V245l-90.1-64 55.7-77.8 149.8 107.2-55.3 77.3-32.1-22.8zm141.8 199.3c4.6-17.2 22.9-31.8 42.4-34h.1l126.1 89.6H308.4c-23.5-7.2-37.3-31.8-30.9-55.6z"/>
    </g>
</svg>
